Patient4_TMGait_0pt6_01_left_04_EMG.mot
version=1
nRows=13
nColumns=33
inDegrees=no
endheader
time	1LAddLong	2LGlutMax	3LGlutMed	4LIliopsoas	5LSemiMemb	6LBicFemLong	7LRecFem	8LVastMed	9LVastLat	10LGasMed	11LTibAnt	12lTibPost	13LPeroneusLong	14LSol	15LExtDigLong	16LFlexDigLong	17RAddLong	18RGlutMax	19RGlutMed	20RIliopsoas	21RSemiMemb	22RBicFemLong	23RRecFem	24RVastMed	25RVastLat	26RGasMed	27RTibAnt	28RTibPost	29RPeroneusLong	30RSol	31RExtDigLong	32RFlexDigLong
4.77	0.001984	-0.18585	-0.059814	0.004272	-0.003815	0.013885	-0.084534	0.008545	0.55985	0.00351	-0.013123	0.014191	0.066071	-0.014038	0.043488	0.011597	-0.002289	0.00824	-0.098724	-0.12512	-0.097504	0.029297	-0.023651	0.13748	0.15335	0.018158	-0.27603	0.001984	0.36331	-0.39627	-0.002899	0.005493
4.771	0.002747	-0.18707	-0.046234	0.02182	0.001526	0.018921	-0.1799	0.013275	0.52506	0.000916	0.020905	0.019073	0.056305	0.022736	0.045471	0.02533	-0.001678	0.13138	0.17212	-0.074615	-0.15595	0.002899	0.1033	-0.034943	0.14252	0.026703	-0.22064	0.006409	0.97824	-0.58655	-0.001831	0.008087
4.772	0.003052	-0.17303	-0.023041	0.025024	0.000763	0.003662	-0.28061	0.008698	0.33493	-0.004578	-0.016937	0.015259	0.066986	-0.02533	0.026093	0.009918	0.000305	0.24216	0.48157	-0.11307	-0.27649	0.049591	0.058746	-0.1651	0.10727	0.024414	-0.46371	0.004883	1.8626	-0.52414	-0.003967	0.00946
4.773	0.00351	-0.20523	-0.03067	0.001373	0.001373	0.024109	-0.35584	0.006256	0.26688	0.005035	0.000763	0.015869	0.013733	0.061646	-0.004578	0.019684	0.003204	0.31982	0.33798	-0.12665	-0.31982	0.15656	-0.032501	-0.10315	0.043793	0.009308	0.053101	0.005188	0.72022	-0.29205	-0.004883	0.005493
4.774	0.006256	-0.21698	-0.036621	0.011292	-0.00351	0.006866	-0.34027	0.011292	0.45944	-0.00946	-0.028992	0.010071	0.044403	0.15274	0.15518	0.025024	-0.006409	0.36774	0.60577	-0.11612	-0.17761	0.10132	0.061951	-0.011597	0.074005	0.000305	-0.080261	-0.003967	1.0814	-0.10925	-0.003662	0.01297
4.775	0.002899	-0.23727	-0.015869	0.000763	0.001221	0.026093	-0.3154	0.00946	0.79147	0.008392	0.019531	0.009003	0.046692	0.28534	0.65521	0.014648	-0.003815	0.37506	0.27054	0.010986	0.18875	-0.10468	0.18005	0.01297	0.069275	-0.001678	-0.62027	-0.005493	0.47348	0.031128	-0.00351	-0.004883
4.776	0.005798	-0.26047	-0.018311	0.009766	-0.002136	0.015717	-0.25986	0.006561	1.0379	0.040436	0.0354	0.015259	0.024261	0.20828	0.35339	0.00885	0.023956	0.44647	0.23529	0.13351	0.35736	-0.21316	0.34607	-0.02594	0.029907	-0.012207	-0.27435	-0.002747	-0.26215	0.19196	-0.003967	-0.007782
4.777	0.008087	-0.24124	-0.013428	-0.00061	-0.00412	-0.002441	-0.16953	0.013123	1.2546	-0.004272	0.02182	0.018616	0.085449	-0.030365	-0.39673	0.021057	0.027924	0.47745	0.083466	0.16357	0.18982	-0.1413	0.4599	-0.016022	-0.00412	-0.005951	0.028076	-0.000153	-0.56702	0.17471	-0.004425	-0.005493
4.778	0.008392	-0.25803	-0.037384	0.006256	0.002747	0.026855	-0.087128	0.018005	1.5514	-0.023956	0.000305	0.011444	0.053864	-0.112	-0.38788	0.010681	0.015564	0.40909	-0.63553	-0.016479	0.078125	-0.038452	0.52521	0.032959	-0.049896	0.002136	0.2179	-0.004425	-1.9116	0.13458	-0.003662	0.002594
4.779	0.001373	-0.26962	-0.035706	0.025024	-0.000916	0.011597	-0.013733	0.008087	1.8378	0.001526	0.057068	0.019836	0.011139	-0.2713	-0.45654	-0.003662	0.001526	0.41458	-0.52917	-0.10788	0.037537	-0.003357	0.20248	-0.10284	0.017853	-0.007935	0.21057	0	-1.2047	0.29831	-0.002747	-0.006256
4.78	0.006256	-0.24765	-0.041504	0.006409	-0.002899	0.013733	0.063629	0.007172	2.0297	-0.028381	0.00946	0.010681	0.045166	-0.39047	-0.31433	-0.013428	-0.016937	0.44159	-0.37033	-0.14328	0.008698	0.023804	-0.30762	-0.15015	0.057983	-0.011139	0.41779	-0.009613	-0.83283	0.38269	-0.00824	-0.014038
4.781	0.008087	-0.22888	-0.032959	-0.002136	-0.004578	-0.020447	0.11551	0.006561	2.0552	-0.031128	0.061493	0.014801	0.046082	-0.30945	0.019379	0.003357	-0.032043	0.47791	-0.47806	-0.058594	-0.06012	0.040894	-0.48843	-0.049744	0.112	-0.009003	0.50049	-0.001831	0.112	0.36926	-0.001678	-0.00824
4.782	-0.002289	-0.21927	-0.039673	0.013428	-0.007477	-0.030823	0.159	0.006256	1.8771	-0.025177	0.10254	0.016785	0.023041	-0.37781	0.029297	-0.001526	-0.02121	0.50339	-0.46906	0.10284	0.10757	0.022125	-0.41977	-0.060577	0.24353	-0.007935	0.49362	-0.004883	1.0182	0.41672	-0.00351	-0.008545
